<svg id="Layer_1" data-name="Layer 1" xmlns="http://www.w3.org/2000/svg" viewBox="0 0 280.75 208.56"><defs><style>.cls-1{fill:#283b8e;}.cls-1,.cls-2{fill-rule:evenodd;}.cls-2{fill:#d11f26;}</style></defs><title>logo</title><path class="cls-1" d="M188.11,133.84a5.64,5.64,0,0,0-2.84.57c-.69.39-1,1.18-1,2.4v32.35l-35.75-33a9.69,9.69,0,0,0-2.46-1.83,7,7,0,0,0-3-.53,4.87,4.87,0,0,0-2.76.62,2.61,2.61,0,0,0-.94,2.35v40.41a2.55,2.55,0,0,0,1,2.4,5.68,5.68,0,0,0,2.86.56,5.94,5.94,0,0,0,2.92-.56,2.58,2.58,0,0,0,1-2.4V144.9l36.27,33.15c.52.43,1,.83,1.29,1.09a5.43,5.43,0,0,0,1,.65,3,3,0,0,0,1,.35,12.68,12.68,0,0,0,1.33,0,6.2,6.2,0,0,0,3-.56,2.58,2.58,0,0,0,1-2.4V136.81a2.57,2.57,0,0,0-1-2.4A5.94,5.94,0,0,0,188.11,133.84Z"/><path class="cls-1" d="M262.42,134.41a6,6,0,0,0-2.94-.57,5.69,5.69,0,0,0-2.84.57,2.56,2.56,0,0,0-1,2.4v32.35l-35.74-33a9.2,9.2,0,0,0-2.46-1.83,7,7,0,0,0-3-.53,4.69,4.69,0,0,0-2.74.62,2.53,2.53,0,0,0-1,2.35v40.41a2.63,2.63,0,0,0,1,2.4,5.73,5.73,0,0,0,2.86.56,5.93,5.93,0,0,0,2.93-.56,2.57,2.57,0,0,0,1-2.4V144.91l36.31,33.14c.49.43.93.83,1.29,1.09a4.44,4.44,0,0,0,1,.65,2.93,2.93,0,0,0,1,.35,13.18,13.18,0,0,0,1.33,0,6.31,6.31,0,0,0,3.06-.56,2.59,2.59,0,0,0,1-2.4V136.81A2.58,2.58,0,0,0,262.42,134.41Z"/><path class="cls-1" d="M74.06,136.89a18.06,18.06,0,0,0-5.4-2.09,32.36,32.36,0,0,0-7.13-.69H28.74c-1.84,0-2.76.95-2.76,2.87v40.24a2.59,2.59,0,0,0,1,2.4,5.71,5.71,0,0,0,2.85.56,6,6,0,0,0,2.92-.56,2.59,2.59,0,0,0,1-2.4V163.28L52.36,172l15.52,7.28a4.1,4.1,0,0,0,1.08.47l1.24.26c.44,0,.83.09,1.25.09a10.15,10.15,0,0,0,1,0,6,6,0,0,0,3-.61,2.57,2.57,0,0,0,1-2.35,2.81,2.81,0,0,0-1.85-2.83l-14-6.14c-2.2-1-4.05-1.78-5.58-2.4-.93-.43-1.81-.78-2.58-1.08l-1.23-.52c-1.05-.4-1.94-.75-2.67-1.06s-1.36-.51-2-.78v-.12l2.3.12c.75,0,1.65.1,2.61.1.3,0,.64,0,1,0h9.17a31.59,31.59,0,0,0,7.13-.75,18.89,18.89,0,0,0,5.4-2,9.83,9.83,0,0,0,3.41-3.23,7.76,7.76,0,0,0,1.21-4.22v-8a7.76,7.76,0,0,0-1.21-4.22,9.92,9.92,0,0,0-3.41-3.23ZM71,151.79h0a2.74,2.74,0,0,1-.49,1.61,3.49,3.49,0,0,1-1.58,1.26,14.18,14.18,0,0,1-3.14.87,31.89,31.89,0,0,1-5,.31h-27V140.9h27a30.08,30.08,0,0,1,5,.35,13.83,13.83,0,0,1,3.14.83,3.49,3.49,0,0,1,1.58,1.31A2.88,2.88,0,0,1,71,145Z"/><path class="cls-1" d="M117.14,134.11h-17q-17.22,0-17.22,11.76v22.3q0,11.75,17.22,11.75h17q17.27,0,17.28-11.75v-22.3q0-11.76-17.28-11.76Zm9.57,34.06h0a4.12,4.12,0,0,1-2.32,3.47c-1.58,1-4.06,1.49-7.48,1.49H100.4c-3.41,0-5.9-.53-7.47-1.49a4.18,4.18,0,0,1-2.33-3.47v-22.3a4.2,4.2,0,0,1,2.33-3.53q2.35-1.44,7.47-1.44h16.51c3.42,0,5.9.48,7.48,1.44a4.15,4.15,0,0,1,2.32,3.53Z"/><path class="cls-1" d="M201.38,133.84a5.89,5.89,0,0,0-2.9.57,2.56,2.56,0,0,0-1,2.4v40.41a2.57,2.57,0,0,0,1,2.4,5.9,5.9,0,0,0,2.9.56,5.71,5.71,0,0,0,2.89-.56,2.54,2.54,0,0,0,1-2.4V136.81a2.53,2.53,0,0,0-1-2.4A5.7,5.7,0,0,0,201.38,133.84Z"/><path class="cls-1" d="M215.86,45.53h-1.94l-2.74-4.61h-2.1v4.61h-1.49V33.94h3.15a8.92,8.92,0,0,1,1.69.13,3.37,3.37,0,0,1,1.22.49,2.87,2.87,0,0,1,1,1,3.51,3.51,0,0,1-2,4.9l3.2,5.07Zm-2.47-8.33a2.19,2.19,0,0,0-.17-.88,1.45,1.45,0,0,0-.56-.65,2.06,2.06,0,0,0-.77-.32,5.41,5.41,0,0,0-1-.09h-1.76v4.38h1.51a5,5,0,0,0,1.24-.13,2,2,0,0,0,.9-.48,2.19,2.19,0,0,0,.5-.75A3.24,3.24,0,0,0,213.39,37.2Z"/><path class="cls-1" d="M211.12,30.6a8.1,8.1,0,0,1,6,2.67,9.7,9.7,0,0,1,0,12.93,8,8,0,0,1-11.92,0,9.7,9.7,0,0,1,0-12.93,8.08,8.08,0,0,1,6-2.67Zm5.12,3.58a6.85,6.85,0,0,0-10.24,0,8.34,8.34,0,0,0,0,11.11,6.85,6.85,0,0,0,10.24,0,8.34,8.34,0,0,0,0-11.11Z"/><path class="cls-2" d="M190.18,55.07a49.34,49.34,0,0,1-58.58,67.35,85.91,85.91,0,0,0,21.2-8,4.84,4.84,0,0,0,.57.7,4.23,4.23,0,1,0,0-6,4.28,4.28,0,0,0-1.23,2.81,83.68,83.68,0,0,1-11.43,5.16,90.21,90.21,0,0,1-13.14,3.94c-1.82-.36-6.44-2.94-8.15-4-1-.59-1.94-1.22-2.87-1.89a148.39,148.39,0,0,0,25.21-7.36A149.52,149.52,0,0,0,165.5,96a4.2,4.2,0,1,0-.77-2.44,146.62,146.62,0,0,1-23.88,11.93,145.42,145.42,0,0,1-26.95,7.66,49.79,49.79,0,0,1-7.73-7.9,86.55,86.55,0,0,0,10.7-1.79,89.82,89.82,0,0,0,12-3.69,4.37,4.37,0,0,0,.69.91,4.22,4.22,0,1,0-1.22-3.37,85.64,85.64,0,0,1-12,3.73A82.42,82.42,0,0,1,104.46,103a48.65,48.65,0,0,1-3.26-5.42l-1.59-3.1,3.48-.29a106.23,106.23,0,0,0,23.73-5l.93-.31h5.84a4.24,4.24,0,0,0,4.21-3.74c2.55-1,5.13-2.19,7.72-3.41l4.82,5.44a4.24,4.24,0,0,0,3.41,1.71h10.33v0a4.15,4.15,0,0,0,2.82-1.07,4.23,4.23,0,0,0,.33-6l-5.78-6.47a13.84,13.84,0,0,0,2-2.16v0A15.1,15.1,0,0,0,164.87,71q3-2,5.89-4a144.18,144.18,0,0,0,15.69-12.67l2.4-2.25,1.33,3ZM133.75,96.51a1.75,1.75,0,0,0-1.24-.51,1.74,1.74,0,0,0-1.73,1.73,1.71,1.71,0,0,0,.51,1.23,1.68,1.68,0,0,0,1.22.51,1.72,1.72,0,0,0,1.23-.5,1.75,1.75,0,0,0,.51-1.24,1.71,1.71,0,0,0-.5-1.22Zm23.84,14.42a1.73,1.73,0,1,0,0,2.46,1.76,1.76,0,0,0,.51-1.23,1.75,1.75,0,0,0-.51-1.23Zm12.6-18.54a1.74,1.74,0,0,0-2.46,0,1.69,1.69,0,0,0-.51,1.23,1.89,1.89,0,0,0,.08.53l.35.54,0,0,.12.13a1.71,1.71,0,0,0,1.23.51,1.71,1.71,0,0,0,1.73-1.73A1.74,1.74,0,0,0,170.19,92.39Z"/><path class="cls-1" d="M145.06,25.66a49.06,49.06,0,0,1,21.53,4.95h0a49.47,49.47,0,0,1,17.25,13.93l1.33,1.68-1.57,1.46A145.78,145.78,0,0,1,169.48,59.2h0l-1.23.87-1.59,1.11a17.77,17.77,0,0,0-.72-3.42,15.69,15.69,0,0,0-2.3-4.52l-.13-.18c-.25-.33-.51-.66-.78-1l.33-.07a47,47,0,0,0-6.65-14.44c-2.69-3.71-5.77-6.18-9-7V47.89h-4.66V30.61c-4.61,1.13-8.85,5.58-12.14,12.18a51.09,51.09,0,0,0-2.18,5.1H126a4.24,4.24,0,0,0-2.94,1.18,57,57,0,0,1,3.34-8.35,37.23,37.23,0,0,1,5.62-8.47A44.74,44.74,0,0,0,113.48,43.4c-.9.9-1.76,1.84-2.58,2.81A52.06,52.06,0,0,0,122,50.77a4.09,4.09,0,0,0-.23,1.36q0,6.28,3.23,9.23l-.14.92a4.27,4.27,0,0,0-3.09,4.09V83.18l-2.09.66v0a105.75,105.75,0,0,1-20.26,3.93l-2,.17-.45-2a47.51,47.51,0,0,1-.92-5.44A48.63,48.63,0,0,1,95.75,75a49.32,49.32,0,0,1,49.31-49.31Zm6.13,45H147a4.89,4.89,0,0,1,.58.54l.85,1,.13-.07.21-.11h0l.19-.1.21-.11h0l.2-.1.21-.12.16-.08.14-.08h0l.15-.08.15-.08h0l.15-.08.14-.07h0l.15-.08.13-.08h0l.16-.08.12-.07h0l.08,0ZM119.42,79c0-.37,0-.74,0-1.13l0-.87H100.45c0,1,.12,2,.23,2.94s.25,2,.42,2.92A104.82,104.82,0,0,0,119.42,79Zm-.06-6.66a89.81,89.81,0,0,1,2-16.95A57,57,0,0,1,108.07,50a44.42,44.42,0,0,0-7.59,22.43Zm38.7-40.14a31.58,31.58,0,0,1,2.12,2.63,52.17,52.17,0,0,1,7.4,16.05A56.23,56.23,0,0,0,177,47.39c.63-.54,1.25-1.09,1.85-1.63a44.73,44.73,0,0,0-14.26-11A45.21,45.21,0,0,0,158.06,32.24Z"/><path class="cls-1" d="M154.51,73.93h.06l9.51,10.65H153.75L144.36,74H133.59V84.58H126V66.37l27.28.06c1.09,0,1.64-1.11,1.64-3.33s-.55-3.41-1.64-3.41H133.15q-7.12,0-7.12-7.56h27.28a8.09,8.09,0,0,1,6.8,3.47,12,12,0,0,1,2.4,7.5,11.76,11.76,0,0,1-2.4,7.43A8.09,8.09,0,0,1,154.51,73.93Z"/></svg>